<?xml version="1.0" standalone="no"?>
<!DOCTYPE svg PUBLIC "-//W3C//DTD SVG 20010904//EN"
 "http://www.w3.org/TR/2001/REC-SVG-20010904/DTD/svg10.dtd">
<svg version="1.0" xmlns="http://www.w3.org/2000/svg"
 width="2237.000000pt" height="2237.000000pt" viewBox="0 0 2237.000000 2237.000000"
 preserveAspectRatio="xMidYMid meet">
<metadata>
Created by potrace 1.11, written by Peter Selinger 2001-2013
</metadata>
<g transform="translate(0.000000,2237.000000) scale(0.100000,-0.100000)"
fill="#000000" stroke="none">
<path d="M5988 21100 c-127 -15 -163 -21 -283 -46 -269 -56 -264 -55 -395 -69
-154 -17 -314 -51 -390 -82 -8 -3 -19 -7 -25 -9 -16 -4 -355 -120 -420 -144
-333 -119 -603 -239 -830 -368 -267 -153 -572 -334 -665 -395 -74 -50 -286
-208 -325 -244 -35 -31 -249 -205 -439 -357 -168 -133 -309 -267 -433 -409
-43 -49 -89 -102 -103 -117 -14 -15 -74 -88 -135 -161 -60 -73 -154 -184 -207
-247 -216 -251 -288 -357 -502 -747 -13 -22 -68 -119 -123 -215 -227 -398
-344 -673 -462 -1090 -16 -58 -42 -145 -56 -195 -15 -49 -29 -99 -31 -110 -2
-11 -6 -31 -9 -45 -13 -60 -15 -78 -16 -130 -4 -132 38 -210 151 -287 59 -40
171 -96 267 -133 43 -17 102 -42 131 -55 29 -14 55 -25 57 -25 2 0 66 -27 142
-61 76 -33 154 -67 173 -76 35 -14 52 -22 140 -61 218 -96 623 -242 711 -256
20 -3 42 -8 50 -10 81 -29 352 -39 425 -16 144 44 187 105 183 261 -1 49 -5
109 -10 132 -25 140 -27 306 -5 423 3 12 7 39 10 60 11 64 35 166 56 229 11
33 20 63 20 67 1 19 88 179 124 228 58 80 145 159 233 212 76 46 222 102 298
114 20 3 47 8 59 10 108 22 470 21 556 -1 8 -2 33 -6 55 -10 295 -43 564 -195
713 -400 36 -51 97 -178 106 -225 4 -19 10 -48 14 -65 9 -41 8 -238 -1 -300
-7 -51 -31 -148 -88 -360 -55 -208 -67 -265 -64 -316 9 -140 118 -181 345
-130 25 5 99 19 165 30 113 19 154 25 250 37 22 2 51 7 65 9 14 3 40 7 58 10
32 5 66 11 125 20 17 3 57 12 87 20 30 7 75 16 100 20 25 4 52 9 60 10 27 5
131 19 215 29 28 4 77 11 110 16 33 5 80 12 105 15 90 12 234 56 303 93 100
52 127 94 134 206 7 98 -2 141 -94 476 -59 216 -98 370 -109 428 -36 202 -46
287 -45 407 0 50 3 101 6 115 3 14 7 41 10 62 9 73 78 225 130 287 89 109 168
172 280 229 54 27 124 56 165 67 131 35 225 43 620 50 243 4 267 6 380 36 271
70 436 217 472 419 26 152 -47 292 -195 371 -128 68 -276 70 -522 8 -44 -12
-89 -23 -100 -25 -23 -4 -59 -12 -95 -20 -14 -3 -67 -9 -118 -12 -379 -28
-665 223 -709 622 -15 135 -7 695 12 795 1 9 6 36 10 61 7 42 9 55 19 98 24
107 122 398 170 509 36 82 58 121 160 296 91 154 116 245 88 317 -20 50 -80
92 -150 105 -15 3 -38 8 -52 12 -35 10 -1031 12 -1112 3z"/>
<path d="M8250 20923 c-101 -15 -195 -65 -268 -142 -69 -73 -222 -293 -222
-319 0 -6 -4 -12 -9 -14 -12 -4 -115 -220 -152 -321 -143 -379 -188 -741 -114
-902 47 -103 177 -136 386 -100 135 24 188 28 334 29 146 1 213 -6 312 -30
297 -73 583 -347 709 -681 23 -62 61 -216 62 -253 6 -212 -7 -303 -65 -450
-103 -261 -265 -430 -608 -631 -212 -125 -374 -188 -522 -205 -26 -3 -59 -7
-73 -10 -14 -3 -151 -7 -305 -9 -302 -3 -368 -12 -450 -59 -94 -56 -128 -167
-99 -330 11 -66 129 -501 186 -686 30 -100 83 -202 127 -248 42 -43 118 -87
167 -97 36 -7 225 -8 245 -1 8 3 43 7 79 11 108 10 308 35 391 50 19 3 182 29
319 50 14 2 50 7 80 10 30 4 62 9 70 10 33 6 186 18 385 31 55 3 114 7 130 9
470 39 727 16 966 -84 93 -39 153 -80 238 -163 185 -183 282 -416 283 -678 0
-58 -3 -120 -6 -137 -3 -18 -8 -45 -11 -60 -6 -33 -13 -69 -20 -103 -12 -57
-15 -78 -21 -136 -16 -168 59 -289 231 -377 42 -21 205 -83 240 -91 6 -2 30
-8 55 -15 153 -44 343 -59 443 -37 91 21 161 81 187 161 22 66 16 241 -10 345
-5 19 -12 55 -15 80 -3 25 -8 52 -10 60 -16 64 -22 276 -10 354 4 23 9 53 11
69 2 15 18 64 34 108 74 203 214 337 449 430 70 28 230 71 311 83 249 38 444
47 1018 49 388 0 501 8 608 41 144 45 229 172 278 416 3 14 7 34 10 45 21 91
36 155 41 180 57 308 60 331 60 435 0 73 -4 93 -28 142 -26 52 -34 60 -95 90
l-67 33 -295 1 c-347 1 -434 10 -604 65 -365 117 -726 497 -821 864 -27 102
-30 135 -30 290 1 131 4 164 28 258 16 59 39 130 53 156 13 27 24 51 24 55 0
3 20 39 44 80 164 277 438 493 724 571 138 37 190 43 370 38 412 -9 446 -6
572 55 254 125 473 527 517 947 9 92 9 267 0 330 -17 105 -84 183 -179 205
-78 18 -215 8 -343 -24 -27 -6 -205 -47 -230 -52 -11 -2 -33 -6 -50 -10 -140
-28 -532 -129 -685 -176 -313 -96 -758 -261 -977 -364 -52 -24 -97 -44 -99
-44 -5 0 -331 -163 -504 -253 -258 -133 -433 -187 -610 -187 -70 -1 -90 2
-190 27 -117 29 -283 100 -450 193 -36 20 -119 65 -185 100 -66 34 -142 75
-170 90 -27 15 -113 60 -190 100 -77 40 -173 91 -214 113 -310 165 -537 256
-1111 445 -135 45 -298 99 -362 121 -64 22 -143 42 -175 46 -32 4 -67 8 -78 9
-11 1 -31 1 -45 -1z"/>
<path d="M16014 20809 c-180 -24 -255 -104 -299 -315 -7 -38 -16 -100 -20
-139 -3 -38 -8 -83 -10 -100 -2 -16 -6 -57 -10 -90 -5 -50 -37 -228 -50 -285
-29 -120 -135 -400 -220 -577 -193 -404 -467 -672 -790 -773 -76 -23 -80 -24
-143 -35 -83 -14 -99 -14 -257 -14 -413 2 -450 1 -519 -15 -131 -31 -222 -102
-274 -214 -21 -46 -26 -72 -27 -137 0 -68 5 -89 29 -139 37 -76 143 -182 222
-220 141 -69 204 -75 694 -62 307 7 457 -24 620 -129 180 -115 325 -333 366
-547 2 -13 7 -34 10 -48 10 -40 13 -329 4 -395 -5 -33 -11 -82 -15 -110 -3
-27 -8 -57 -10 -65 -2 -8 -6 -31 -9 -50 -3 -19 -8 -44 -10 -55 -8 -39 -45
-231 -51 -265 -3 -19 -8 -42 -10 -50 -20 -78 -25 -233 -9 -294 21 -81 109
-152 209 -171 41 -7 72 -13 115 -20 14 -3 50 -7 80 -10 30 -3 64 -8 75 -10 11
-2 43 -7 70 -11 28 -3 53 -8 56 -10 4 -2 28 -6 55 -9 26 -4 50 -8 54 -10 3 -2
41 -8 85 -14 44 -6 91 -13 105 -15 26 -5 88 -12 168 -21 26 -3 61 -7 77 -10
36 -5 206 -16 295 -19 239 -8 364 90 403 314 79 447 167 661 346 841 171 170
448 309 711 355 14 3 30 6 37 9 54 19 416 26 588 12 288 -24 488 -110 665
-287 169 -168 246 -337 278 -610 11 -93 4 -302 -13 -391 -3 -13 -7 -41 -10
-62 -4 -21 -14 -75 -24 -120 -36 -165 -25 -265 35 -336 46 -54 104 -79 224
-97 31 -5 294 -4 450 1 63 2 248 6 410 10 353 7 637 18 810 30 36 2 124 7 195
10 229 9 288 15 404 41 79 17 151 88 175 172 18 66 21 218 6 303 -5 30 -12 70
-15 89 -5 33 -9 52 -20 110 -5 24 -30 147 -40 200 -2 14 -7 36 -10 50 -3 14
-7 34 -9 45 -33 170 -126 478 -199 665 -23 58 -42 107 -42 110 -3 9 -22 54
-74 170 -217 481 -581 1035 -926 1410 -100 109 -655 661 -733 729 -200 175
-715 542 -1027 731 -158 96 -521 280 -790 400 -88 40 -188 85 -223 101 -112
51 -404 165 -517 202 -166 54 -260 78 -555 143 -142 32 -309 63 -375 69 -38 4
-77 9 -86 10 -8 2 -55 6 -105 10 -49 4 -102 9 -119 12 -48 8 -425 10 -481 2z"/>
<path d="M3708 16075 c-2 -2 -30 -5 -63 -8 -176 -17 -268 -108 -311 -308 -13
-64 -1 -299 22 -413 18 -88 23 -351 10 -468 -49 -441 -389 -695 -930 -696
-204 0 -355 26 -691 123 -490 141 -970 287 -1065 325 -181 71 -242 97 -295
122 -181 87 -315 66 -359 -56 -28 -78 -29 -401 -2 -556 3 -14 7 -50 11 -80 3
-30 7 -66 9 -80 5 -28 14 -88 22 -140 3 -19 7 -46 10 -60 2 -14 6 -36 9 -50 3
-13 7 -42 10 -65 3 -22 10 -65 15 -95 5 -30 12 -77 15 -105 4 -27 13 -86 20
-130 8 -44 17 -93 20 -110 2 -16 7 -41 10 -55 3 -14 8 -35 11 -48 2 -13 16
-68 29 -123 14 -54 36 -145 50 -201 97 -390 305 -1013 450 -1343 235 -537 426
-921 621 -1252 163 -275 470 -745 659 -1008 82 -114 281 -381 299 -402 6 -6
22 -26 36 -45 54 -73 168 -178 216 -199 104 -46 236 -22 399 73 586 342 853
483 1060 558 50 18 99 36 110 41 51 22 294 81 390 96 17 2 41 7 55 9 48 10
327 13 366 4 145 -33 187 -45 254 -73 41 -17 106 -49 144 -71 66 -39 186 -147
233 -210 36 -47 91 -166 108 -231 25 -97 28 -124 28 -240 -1 -161 -22 -262
-119 -565 -82 -260 -95 -419 -42 -531 32 -66 85 -122 150 -155 41 -21 67 -28
142 -38 37 -5 127 15 180 40 93 44 157 122 195 240 19 58 23 72 37 164 4 25 8
221 9 435 1 215 5 404 8 420 3 17 9 55 12 85 45 356 246 587 560 645 68 13
302 13 355 1 14 -3 62 -9 107 -12 144 -11 219 32 243 139 9 41 6 229 -4 245
-2 4 -7 36 -11 72 -7 72 -11 95 -30 210 -10 55 -37 124 -68 171 -85 130 -239
155 -552 89 -171 -37 -235 -44 -380 -43 -174 2 -334 49 -476 143 -67 43 -172
138 -220 197 -73 90 -177 274 -233 413 -15 36 -31 74 -36 85 -57 129 -143 455
-166 630 -3 22 -7 54 -10 70 -10 58 -13 441 -4 505 5 36 12 85 15 110 3 25 8
52 10 60 2 8 7 29 10 46 3 18 18 73 35 124 99 302 279 523 528 649 62 31 250
98 301 108 14 2 44 8 66 13 22 5 63 12 90 15 28 3 59 8 70 10 38 8 250 16 500
21 265 4 282 5 342 24 199 63 234 263 123 695 -99 383 -171 443 -495 412 -38
-4 -81 -9 -95 -12 -13 -3 -42 -7 -65 -10 -92 -14 -212 -34 -285 -50 -26 -6
-35 -7 -110 -21 -25 -4 -47 -8 -50 -9 -6 -2 -57 -12 -180 -36 -53 -10 -118
-21 -145 -25 -28 -3 -59 -8 -70 -10 -34 -7 -159 -28 -225 -38 -19 -3 -46 -8
-60 -10 -30 -6 -325 -55 -360 -61 -45 -6 -115 -17 -130 -20 -8 -1 -40 -6 -70
-10 -30 -4 -62 -9 -70 -10 -8 -1 -44 -6 -80 -10 -36 -4 -72 -9 -80 -10 -40 -7
-182 -18 -238 -17 -334 2 -554 119 -642 342 -37 93 -49 177 -46 305 4 144 22
237 82 410 25 72 69 200 98 285 95 277 98 405 11 508 -54 64 -170 116 -285
127 -100 10 -129 12 -132 10z"/>
<path d="M18445 16073 c-94 -8 -204 -28 -261 -49 -135 -49 -269 -164 -328
-282 -50 -101 -69 -184 -101 -457 -3 -27 -8 -59 -10 -71 -3 -12 -7 -39 -11
-60 -10 -64 -53 -185 -91 -254 -49 -88 -159 -195 -248 -241 -145 -75 -317
-104 -620 -103 -144 0 -395 9 -500 19 -22 2 -92 6 -155 10 -63 3 -137 8 -165
10 -106 9 -174 16 -193 20 -10 2 -45 6 -78 9 -32 4 -66 8 -74 11 -8 2 -31 6
-50 9 -31 5 -147 26 -220 41 -83 17 -207 21 -255 10 -87 -22 -170 -88 -217
-175 -39 -71 -57 -132 -98 -330 -32 -153 -38 -203 -37 -291 2 -96 4 -109 29
-146 37 -56 84 -76 183 -77 44 0 112 4 150 8 88 11 240 12 324 3 86 -10 231
-59 315 -106 230 -128 469 -351 623 -581 72 -108 178 -337 198 -430 1 -3 7
-25 14 -50 41 -144 56 -374 37 -565 -12 -119 -16 -150 -21 -175 -2 -14 -7 -41
-10 -60 -10 -65 -47 -203 -72 -269 -125 -335 -402 -560 -773 -630 -30 -6 -68
-13 -85 -17 -16 -3 -177 -8 -356 -9 -180 -2 -344 -6 -365 -9 -83 -13 -144 -28
-149 -37 -4 -5 -14 -9 -24 -9 -25 0 -127 -95 -157 -146 -47 -79 -74 -188 -89
-347 -13 -138 -9 -339 9 -407 35 -137 101 -181 351 -236 355 -77 639 -275 742
-519 73 -172 76 -313 13 -580 -48 -202 -54 -243 -54 -365 -1 -69 2 -141 6
-160 59 -292 323 -474 618 -425 174 28 330 208 376 430 15 78 20 220 10 281
-3 17 -8 46 -10 65 -3 19 -14 80 -26 137 -11 57 -24 122 -27 145 -9 54 -9 258
-1 318 32 225 158 454 314 570 135 100 391 190 634 224 25 3 56 8 70 10 35 5
126 15 185 21 69 6 447 6 520 -1 58 -5 128 -12 210 -20 22 -3 51 -7 65 -10 14
-3 43 -7 65 -10 22 -2 50 -7 61 -9 12 -2 39 -7 60 -10 22 -4 80 -13 129 -21
50 -7 117 -16 150 -20 33 -3 76 -7 95 -10 19 -2 71 -7 115 -10 44 -3 91 -7
105 -10 14 -2 41 -6 60 -9 140 -20 429 -102 660 -188 201 -74 310 -84 406 -35
94 48 155 126 333 425 48 81 106 176 128 212 267 430 317 517 450 782 57 114
103 209 103 211 0 3 24 56 54 118 29 63 69 148 88 189 20 41 49 104 66 140 77
165 166 394 252 645 32 94 90 261 129 371 61 176 112 344 127 417 2 12 16 85
29 162 34 185 62 323 85 415 36 142 58 299 54 391 -8 215 -107 302 -361 314
-342 15 -923 19 -1388 9 -419 -10 -966 -10 -1070 -1 -113 9 -215 36 -300 77
-218 106 -360 318 -392 587 -14 111 -7 357 12 453 3 14 7 39 10 55 2 17 11 62
20 100 67 297 37 449 -105 540 -66 42 -208 74 -295 68z"/>
<path d="M13819 14736 c-4 -4 -158 -12 -409 -21 -215 -8 -374 -19 -440 -30
-209 -34 -315 -81 -367 -164 -15 -24 -28 -47 -29 -50 0 -3 -4 -28 -9 -56 -5
-27 -8 -61 -8 -75 0 -25 22 -188 30 -225 11 -51 22 -130 28 -200 4 -33 8 -71
11 -85 6 -33 6 -263 0 -281 -3 -8 -7 -32 -10 -54 -15 -121 -85 -258 -167 -328
-148 -127 -452 -209 -783 -210 -219 0 -327 14 -571 77 -632 161 -947 408
-1003 784 -13 91 -6 288 16 422 10 63 17 145 16 183 -5 166 -90 264 -257 296
-49 10 -376 7 -442 -3 -16 -3 -70 -10 -120 -16 -126 -16 -144 -18 -285 -45
-141 -27 -224 -41 -290 -50 -25 -3 -56 -8 -70 -10 -14 -2 -54 -6 -90 -10 -36
-4 -76 -8 -90 -10 -14 -2 -59 -6 -100 -10 -41 -3 -87 -8 -102 -11 -15 -3 -42
-7 -60 -9 -67 -9 -135 -28 -193 -56 -72 -34 -83 -43 -116 -89 -60 -83 -60
-185 1 -363 22 -65 42 -132 45 -149 3 -17 8 -34 10 -38 2 -3 11 -62 20 -131 8
-68 17 -137 20 -154 2 -16 7 -57 11 -90 3 -33 8 -69 10 -80 6 -32 6 -186 -1
-230 -13 -83 -47 -192 -81 -253 -37 -68 -37 -67 -92 -127 -112 -122 -304 -215
-537 -260 -22 -5 -44 -9 -50 -11 -12 -2 -72 -11 -132 -19 -24 -3 -60 -7 -80
-10 -37 -4 -89 -8 -273 -20 -47 -3 -119 -8 -160 -11 -301 -21 -438 -94 -493
-263 -33 -99 -39 -142 -41 -283 -3 -187 18 -333 73 -504 68 -211 162 -348 274
-399 107 -48 203 -49 477 -4 192 32 216 34 355 34 204 0 278 -15 417 -87 248
-128 375 -362 474 -875 2 -12 15 -69 28 -125 28 -120 57 -299 58 -358 1 -16
24 -151 32 -185 22 -89 59 -159 107 -199 63 -53 186 -102 316 -125 32 -6 69
-13 83 -16 13 -3 40 -7 60 -10 20 -3 47 -8 60 -10 43 -9 193 -34 230 -39 91
-13 201 -26 255 -31 196 -16 348 -30 415 -40 14 -2 43 -6 65 -9 22 -3 59 -8
82 -11 63 -9 102 -14 163 -21 30 -3 64 -8 75 -11 39 -9 421 -12 470 -4 28 5
72 12 99 15 27 4 52 9 55 11 3 1 31 6 61 10 79 11 92 13 125 19 17 2 50 8 75
11 67 9 110 16 134 21 11 3 39 7 61 10 22 4 48 10 58 15 9 6 17 8 17 5 0 -2
16 0 36 6 20 5 45 11 56 13 11 2 117 33 236 69 120 36 285 83 367 106 160 43
175 48 390 110 604 176 659 191 965 271 292 76 425 129 497 197 67 64 98 145
108 287 4 44 8 100 10 125 2 25 7 77 10 115 3 39 8 77 10 85 2 8 7 35 10 60 4
25 17 104 30 175 13 72 26 144 29 160 7 35 10 52 32 160 84 414 290 597 709
630 39 3 147 5 240 4 345 -2 405 0 528 16 61 8 156 44 212 80 155 99 221 244
223 486 2 252 -69 445 -237 649 -127 155 -245 235 -380 260 -118 21 -211 3
-381 -77 -135 -63 -205 -85 -285 -88 -179 -8 -329 64 -447 215 -81 104 -122
211 -152 405 -24 151 -23 559 1 765 4 30 7 116 8 190 0 118 -3 140 -21 175
-33 63 -91 88 -218 91 -57 2 -105 2 -107 0z"/>
<path d="M17878 8865 c-2 -1 -41 -5 -88 -9 -266 -20 -406 -112 -456 -301 -13
-47 -13 -258 0 -325 35 -183 38 -473 7 -685 -47 -315 -229 -608 -491 -791
-185 -128 -423 -193 -695 -188 -400 7 -725 170 -965 484 -93 122 -182 309
-204 426 -17 93 -28 164 -31 199 -6 59 -7 315 -1 355 3 19 8 53 11 75 9 69 16
109 25 155 59 288 -52 434 -365 478 -62 9 -360 8 -475 0 -109 -9 -227 -29
-365 -63 -60 -15 -114 -28 -120 -30 -5 -1 -23 -5 -40 -9 -16 -4 -64 -16 -105
-26 -41 -10 -86 -21 -100 -24 -21 -4 -427 -104 -500 -123 -14 -3 -29 -7 -35
-8 -94 -22 -253 -74 -308 -102 -119 -60 -160 -131 -158 -279 1 -47 3 -89 5
-92 2 -4 7 -27 10 -52 3 -25 8 -54 10 -65 4 -20 14 -92 22 -155 3 -19 7 -51 9
-70 3 -19 7 -57 10 -85 6 -46 18 -150 31 -250 2 -22 7 -56 9 -75 10 -85 26
-207 30 -231 32 -189 36 -518 10 -714 -2 -16 -7 -52 -10 -80 -3 -27 -8 -57
-10 -65 -2 -8 -6 -35 -9 -60 -5 -39 -23 -135 -42 -220 -61 -282 -141 -496
-240 -646 -192 -290 -517 -397 -862 -285 -123 41 -206 80 -345 163 -145 87
-223 119 -285 119 -66 1 -100 -15 -149 -68 -57 -62 -121 -229 -138 -359 -3
-22 -7 -50 -10 -64 -3 -14 -7 -50 -10 -80 -3 -30 -8 -80 -11 -110 -13 -135
-12 -456 3 -540 26 -155 101 -267 210 -317 109 -50 244 -40 513 38 120 34 117
34 230 55 121 24 309 24 410 1 151 -35 278 -120 387 -262 33 -43 109 -198 144
-295 34 -97 87 -263 93 -294 2 -12 9 -41 15 -66 10 -47 16 -93 26 -200 19
-212 34 -290 71 -364 45 -89 104 -128 189 -125 88 4 136 32 512 301 95 68 182
130 193 138 180 128 815 601 830 619 3 3 41 33 84 66 43 33 84 64 90 70 6 5
56 44 111 85 55 41 102 77 105 80 3 3 23 18 45 35 22 16 45 33 50 37 6 5 87
68 181 141 187 145 188 145 380 297 73 58 185 146 249 195 64 50 122 95 128
100 7 6 30 24 52 40 22 17 46 35 55 42 8 7 143 110 300 229 274 208 497 383
530 414 9 8 36 31 60 50 24 19 141 118 260 220 118 102 307 262 420 355 113
93 221 183 240 201 19 17 80 71 135 119 55 49 122 109 149 134 159 148 208
193 276 258 41 39 93 88 115 108 22 21 76 72 120 114 44 42 134 126 200 186
66 60 140 127 165 150 25 23 76 71 114 106 112 102 364 357 446 449 41 46 86
95 99 109 13 15 40 46 60 70 20 25 45 54 56 65 11 12 45 50 76 86 116 133 224
257 285 325 86 97 102 117 124 167 34 75 21 158 -33 213 -84 84 -522 204
-1057 290 -129 20 -418 34 -817 39 -133 2 -244 2 -245 1z"/>
<path d="M4395 8506 c-203 -38 -449 -148 -715 -319 -231 -148 -265 -172 -309
-217 -53 -54 -85 -130 -78 -185 6 -46 49 -131 86 -173 76 -85 468 -487 767
-786 654 -653 1251 -1243 1338 -1321 49 -44 101 -91 116 -105 42 -38 132 -117
410 -359 214 -186 328 -287 394 -346 202 -183 564 -504 701 -624 117 -101 352
-307 361 -316 6 -5 39 -35 74 -65 34 -30 72 -64 84 -75 230 -207 400 -358 676
-599 118 -103 244 -214 280 -246 36 -32 76 -68 90 -80 25 -21 78 -69 290 -261
207 -188 158 -144 426 -379 165 -146 315 -274 429 -369 11 -9 36 -27 55 -41
19 -13 37 -27 40 -31 3 -4 70 -50 150 -104 122 -81 303 -181 344 -189 6 -2 36
-11 66 -21 75 -24 338 -31 425 -10 33 8 60 14 60 14 0 -1 20 4 45 11 25 7 45
12 45 11 0 -4 335 112 415 144 122 48 326 147 365 177 110 85 194 203 210 297
3 19 8 38 11 42 5 9 6 162 1 199 -11 71 -19 119 -27 160 -10 46 -13 62 -30
165 -5 33 -12 71 -14 85 -5 31 -14 99 -22 165 -15 133 -56 250 -108 312 -80
95 -254 113 -449 48 -184 -61 -328 -88 -472 -89 -227 -1 -364 56 -506 209
-122 132 -166 201 -288 450 -181 369 -194 408 -220 630 -9 75 -7 424 3 490 3
22 8 60 11 84 16 136 91 429 153 597 161 435 389 632 717 620 179 -7 334 -64
625 -230 173 -99 310 -110 395 -30 106 99 150 334 150 799 0 289 -16 431 -75
680 -10 44 -26 113 -34 153 -9 39 -23 105 -32 144 -9 40 -17 77 -19 83 -20 99
-65 193 -114 242 -74 72 -171 80 -367 29 -56 -14 -119 -28 -140 -32 -22 -3
-41 -7 -44 -9 -3 -2 -37 -6 -75 -10 -39 -4 -72 -9 -75 -10 -3 -2 -48 -7 -100
-10 -52 -4 -106 -9 -120 -11 -170 -22 -909 -22 -1040 0 -14 2 -56 7 -95 11
-96 9 -127 13 -177 21 -24 3 -52 8 -63 9 -65 10 -173 32 -355 75 -96 23 -195
45 -220 50 -25 5 -54 11 -65 14 -11 3 -74 17 -140 31 -191 43 -249 56 -265 60
-8 2 -49 11 -90 20 -86 19 -77 17 -195 45 -49 12 -98 24 -108 26 -10 2 -26 5
-35 8 -9 3 -28 7 -42 10 -14 2 -163 36 -331 75 -468 108 -533 115 -626 69 -91
-46 -114 -123 -118 -398 -2 -176 -12 -376 -20 -419 -1 -9 -6 -41 -10 -71 -17
-133 -69 -308 -123 -415 -91 -181 -252 -349 -427 -444 -189 -104 -427 -145
-675 -116 -454 51 -813 368 -896 789 -24 126 -24 407 0 532 15 73 59 261 64
268 16 27 23 171 11 228 -12 54 -68 115 -121 134 -46 15 -131 15 -213 0z"/>
</g>
</svg>
